<svg width="16" height="17" viewBox="0 0 16 17" fill="none" xmlns="http://www.w3.org/2000/svg">
<g clip-path="url(#clip0)">
<path d="M8.65138 1.47017C8.83234 1.23032 8.80325 0.721586 8.77749 0.272817C8.77651 0.253473 8.77542 0.234555 8.77434 0.215342C8.52068 0.191121 8.26391 0.177734 8.00403 0.177734C7.0082 0.177734 6.05534 0.361189 5.1759 0.693765C5.80325 0.995247 6.77434 1.51416 7.85373 2.28087C8.22201 1.96394 8.49977 1.67136 8.65138 1.47017Z" fill="white"/>
<path d="M12.7049 6.03484C12.3106 6.07939 11.978 6.1441 11.6936 6.23486C13.0532 8.60854 13.5832 11.6074 13.7129 13.78C15.0598 12.4076 15.9152 10.5524 15.996 8.49749C15.068 7.35676 13.8386 5.90624 12.7049 6.03484Z" fill="white"/>
<path d="M4.62265 3.98606C5.57789 3.78728 6.47533 3.3065 7.19089 2.79901C5.69811 1.77088 4.45304 1.23731 4.20537 1.13574C2.65665 1.97296 1.41734 3.30689 0.69635 4.92317C1.63349 4.54977 2.64844 4.35981 3.64531 4.17471C3.96781 4.11482 4.30117 4.05292 4.62265 3.98606Z" fill="white"/>
<path d="M10.1521 4.21866C10.2374 4.30435 10.3224 4.39152 10.4068 4.48031C10.7185 4.80746 11.0012 5.16527 11.2605 5.54383C11.6381 5.40125 12.0827 5.30015 12.6148 5.23999C13.8686 5.09817 14.9835 6.09138 15.9404 7.18484C15.7352 5.5272 15.0243 4.02693 13.965 2.84375C13.3867 2.91343 12.7421 3.03149 12.0851 3.22755C11.6541 3.35628 10.9677 3.70604 10.1521 4.21866Z" fill="white"/>
<path d="M9.09946 8.3503C9.42758 7.23893 9.80765 6.43778 10.544 5.91776C10.323 5.6005 10.0852 5.30275 9.82758 5.03226C9.70841 4.9071 9.5879 4.78623 9.46686 4.66748C6.5125 6.67842 2.46559 10.3724 2.0976 13.573C3.32598 14.917 5.00709 15.8387 6.89957 16.1002C7.58865 14.7283 8.2372 11.9393 8.6227 10.2807C8.80793 9.48395 8.96778 8.79605 9.09946 8.3503Z" fill="white"/>
<path d="M5.74975 6.588C6.77985 5.63878 7.86769 4.78759 8.86267 4.10348C8.53101 3.81006 8.19833 3.53957 7.87175 3.2915C7.04533 3.91273 5.96332 4.5246 4.78554 4.76955C4.45572 4.83819 4.11797 4.90093 3.79145 4.96155C2.53335 5.19518 1.32566 5.42145 0.310025 5.98811C0.112234 6.68433 0.00405884 7.41834 0.00405884 8.17796C0.00405884 9.87723 0.535539 11.4517 1.43894 12.7473C2.02419 10.4301 4.03163 8.17121 5.74975 6.588Z" fill="white"/>
<path d="M9.55172 3.64613C10.5035 3.03937 11.324 2.61982 11.8564 2.46092C12.3344 2.31815 12.8034 2.21416 13.2475 2.13832C12.2213 1.24658 10.9669 0.611016 9.5821 0.333984C9.6128 0.892696 9.62619 1.5061 9.29008 1.95176C9.13038 2.1634 8.86022 2.45365 8.5087 2.76855C8.85296 3.03652 9.20282 3.32874 9.55172 3.64613Z" fill="white"/>
<path d="M9.86667 8.5769C9.74177 9.00004 9.5842 9.67747 9.40192 10.4618C8.8637 12.7776 8.34868 14.8499 7.74722 16.1714C7.83262 16.1741 7.91798 16.1779 8.00403 16.1779C9.86847 16.1779 11.5824 15.5384 12.9426 14.4692C12.8889 12.1957 12.3439 8.97992 10.971 6.59277C10.4385 6.98852 10.1519 7.61109 9.86667 8.5769Z" fill="white"/>
</g>
<defs>
<clipPath id="clip0">
<rect y="0.177734" width="16" height="16" fill="white"/>
</clipPath>
</defs>
</svg>
