<svg width="52" height="9" viewBox="0 0 52 9" fill="none" xmlns="http://www.w3.org/2000/svg">
<path fill-rule="evenodd" clip-rule="evenodd" d="M8.08943 3.30179C7.9566 2.91393 7.63782 2.62171 7.21277 2.43575L6.30954 6.27714C6.33079 6.27182 6.35204 6.26651 6.3733 6.2612C7.90879 5.80958 8.38697 4.1572 8.08943 3.30179ZM4.77936 2.45169C3.39264 2.99894 2.77632 4.36973 3.11636 5.46423C3.22793 5.81489 3.52547 6.09649 3.95052 6.26651L4.85375 2.42513C4.82718 2.43044 4.80061 2.44107 4.77936 2.45169ZM5.90574 7.98796L5.81011 8.39707C5.81011 8.5299 5.70384 8.63085 5.57633 8.63085H3.68486C3.55203 8.63085 3.45108 8.52458 3.45108 8.39707L3.54141 8.01452C2.17593 7.80731 1.20364 7.18568 0.911414 6.31433C0.268527 4.3591 1.43741 1.90975 4.06209 0.932141C4.46058 0.783374 4.86968 0.671798 5.28411 0.602728L5.33724 0.368951C5.33724 0.236123 5.4435 0.135174 5.57102 0.135174H7.46249C7.59531 0.135174 7.69626 0.241436 7.69626 0.368951L7.64313 0.602728C8.93422 0.841818 9.9809 1.48471 10.3316 2.45169C10.8948 3.98718 9.99153 6.93065 7.07994 7.73824C6.68146 7.8445 6.28829 7.92951 5.90574 7.98796ZM15.9953 2.14353C15.294 1.8885 14.428 2.22854 13.8117 3.85967C13.3388 5.11356 13.3707 6.40996 14.1251 6.64905C14.8371 6.8722 15.8147 6.68624 16.3088 4.90635C16.7498 3.29116 16.7817 2.43044 15.9953 2.14353ZM11.9468 8.2058C10.5813 7.30788 10.8735 4.13064 12.0902 2.24448C13.5141 0.0342247 16.4151 -0.518339 17.9612 0.475213C19.9164 1.72911 18.9176 5.18795 18.0515 6.65437C16.7232 8.89119 13.716 9.36406 11.9468 8.2058ZM26.0424 8.63085H24.1722C24.0447 8.63085 23.9385 8.52458 23.9385 8.39707L24.6876 5.18795H22.0151L21.266 8.39707C21.266 8.5299 21.1597 8.63085 21.0322 8.63085H19.1726C19.0451 8.63085 18.9388 8.52458 18.9388 8.39707L20.809 0.368951C20.809 0.236123 20.9153 0.135174 21.0428 0.135174H22.913C23.0405 0.135174 23.1468 0.241436 23.1468 0.368951L22.4773 3.24866H25.1498L25.8193 0.368951C25.8193 0.236123 25.9256 0.135174 26.0531 0.135174H27.9233C28.0508 0.135174 28.1571 0.241436 28.1571 0.368951L26.2869 8.39707C26.2762 8.52458 26.1753 8.63085 26.0424 8.63085ZM30.2717 6.64905H31.1377C31.1377 6.64905 32.6838 6.84564 32.7742 5.60768C32.8273 4.91167 31.6372 4.99136 31.6372 4.99136H30.6595L30.2717 6.64905ZM35.181 2.11165H31.329L31.1005 3.10521H32.822C32.822 3.10521 35.521 3.0627 35.2288 5.23045C34.7878 8.53521 31.8284 8.63085 31.8284 8.63085H29.6341H29.4694H28.0508C27.4982 8.60428 27.6311 8.06766 27.6736 7.9242L29.2781 0.841818C29.5279 -0.0507855 30.447 0.135174 30.5745 0.135174H31.499H35.5582C35.6911 0.135174 35.792 0.241436 35.792 0.368951L35.4148 1.87788C35.4201 2.00539 35.3138 2.11165 35.181 2.11165ZM42.8319 2.11165H39.6918C39.3731 2.18604 39.1287 2.36668 38.9799 2.88205L38.8843 3.29116H42.1253C42.2581 3.29116 42.359 3.39743 42.359 3.52494L41.9818 4.89573C41.9818 5.02855 41.8755 5.1295 41.748 5.1295H38.4751L38.2626 6.06461C38.2307 6.34621 38.2626 6.52685 38.337 6.63843C38.3423 6.63843 38.3423 6.63843 38.3476 6.63843H41.8915C42.0243 6.63843 42.1253 6.74469 42.1253 6.8722L41.748 8.38113C41.748 8.51396 41.6418 8.61491 41.5142 8.61491H38.2998H37.9704H37.2159C36.4083 8.61491 35.6698 7.97733 35.7973 6.72344L36.8387 2.09571C37.3381 0.438021 38.863 0.113921 39.6706 0.113921H40.7545H43.2091C43.342 0.113921 43.4429 0.220184 43.4429 0.347699L43.0657 1.85662C43.0657 2.00539 42.9647 2.11165 42.8319 2.11165ZM50.9078 1.87788C50.9078 2.0107 50.8016 2.11165 50.6741 2.11165H48.5701L47.109 8.39176C47.109 8.52458 47.0027 8.62553 46.8752 8.62553H45.005C44.8774 8.62553 44.7712 8.51927 44.7712 8.39176L46.2323 2.11165H44.2027C44.0698 2.11165 43.9689 2.00539 43.9689 1.87788L44.3939 0.368951C44.3939 0.236123 44.5002 0.135174 44.6277 0.135174H46.8699H48.7401H51.0991C51.2319 0.135174 51.3329 0.241436 51.3329 0.368951L50.9078 1.87788Z" fill="#FF283D"/>
</svg>
