<svg width="25" height="25" viewBox="0 0 25 25" fill="none" xmlns="http://www.w3.org/2000/svg">
<g clip-path="url(#clip0)">
<path d="M25 12.5C25 14.3271 24.6082 16.0623 23.9036 17.6271C23.2046 19.1796 22.1975 20.5638 20.9607 21.7005C18.7347 23.7495 15.7638 25 12.5 25C9.23472 25 6.26274 23.7485 4.03623 21.6979C2.80054 20.5612 1.79492 19.1781 1.09644 17.6271C0.391846 16.0623 0 14.3271 0 12.5C0 5.59644 5.59644 0 12.5 0C19.4036 0 25 5.59644 25 12.5Z" fill="#75C5F2"/>
<path d="M24.4386 14.0818C24.4386 15.3166 24.2513 16.5068 23.9034 17.6272C23.2044 19.1798 22.1973 20.564 20.9605 21.7007C18.7345 23.7497 15.7636 25.0002 12.4998 25.0002C9.23452 25.0002 6.26255 23.7487 4.03604 21.6981C2.80034 20.5614 1.79473 19.1783 1.09624 17.6272C0.748291 16.5068 0.561035 15.3166 0.561035 14.0818C0.561035 7.48848 5.90591 2.14307 12.4998 2.14307C19.0932 2.14307 24.4386 7.48848 24.4386 14.0818Z" fill="#FEE300"/>
<path d="M4.31042 10.3984C4.31042 10.0341 4.69749 9.85205 5.08445 9.85205H7.41804C8.55637 9.85205 9.69465 10.2619 9.69465 11.8783C9.69465 12.8003 9.33035 13.4036 8.72708 13.6655C9.42146 13.9272 9.89958 14.3485 9.89958 15.4868V15.7258C9.89958 17.5244 8.89783 18.1732 7.61155 18.1732H5.0845C4.60642 18.1732 4.31047 17.9229 4.31047 17.6382V10.3984H4.31042ZM6.07483 12.9825H7.27004C7.70261 12.9825 7.91887 12.584 7.91887 12.197C7.91887 11.7986 7.70261 11.4002 7.27004 11.4002H6.07483C6.07483 11.4001 6.07483 12.9825 6.07483 12.9825ZM7.21311 16.625C7.78225 16.625 8.12375 16.3063 8.12375 15.5778V15.3957C8.12375 14.6216 7.7822 14.3484 7.21311 14.3484H6.07478V16.625H7.21311V16.625Z" fill="#1D2123"/>
<path d="M9.25463 5.7043C9.24325 5.65879 9.23187 5.61323 9.23187 5.5791C9.23187 5.15791 9.8807 4.85059 10.3702 4.85059C10.6548 4.85059 10.8825 4.94165 10.9508 5.18066L12.5444 11.0203L14.1267 5.18066C14.195 4.94165 14.4227 4.85059 14.7073 4.85059C15.1968 4.85059 15.8456 5.15791 15.8456 5.5791C15.8456 5.61323 15.8342 5.65879 15.8229 5.7043L13.7056 12.6481C13.5804 13.0465 13.0681 13.24 12.5444 13.24C12.0208 13.24 11.5085 13.0465 11.3833 12.6481L9.25463 5.7043Z" fill="#1D2123"/>
<path d="M15.8224 10.3984C15.8224 10.0341 16.2095 9.85205 16.5965 9.85205H18.9301C20.0684 9.85205 21.2067 10.2619 21.2067 11.8783C21.2067 12.8003 20.8424 13.4036 20.2392 13.6655C20.9335 13.9272 21.4117 14.3485 21.4117 15.4868V15.7258C21.4117 17.5244 20.4099 18.1732 19.1236 18.1732H16.5966C16.1184 18.1732 15.8225 17.9229 15.8225 17.6382V10.3984H15.8224ZM17.5868 12.9825H18.7821C19.2146 12.9825 19.4309 12.584 19.4309 12.197C19.4309 11.7986 19.2146 11.4002 18.7821 11.4002H17.5868V12.9825ZM18.7251 16.625C19.2943 16.625 19.6358 16.3063 19.6358 15.5778V15.3957C19.6358 14.6216 19.2942 14.3484 18.7251 14.3484H17.5868V16.625H18.7251V16.625Z" fill="#1D2123"/>
<path d="M9.51544 21.7482V20.1453C9.51544 19.1858 10.1015 18.8296 10.8598 18.8296C11.6182 18.8296 12.21 19.1858 12.21 20.1453V21.7482C12.21 22.7076 11.6182 23.0639 10.8598 23.0639C10.1014 23.0639 9.51544 22.7077 9.51544 21.7482ZM11.463 20.1453C11.463 19.6914 11.2333 19.4846 10.8598 19.4846C10.4806 19.4846 10.2623 19.6914 10.2623 20.1453V21.7482C10.2623 22.2021 10.4806 22.4089 10.8598 22.4089C11.2332 22.4089 11.463 22.2021 11.463 21.7482V20.1453Z" fill="#1D2123"/>
<path d="M12.67 20.2257V20.1453C12.67 19.1858 13.2617 18.8296 14.0144 18.8296C14.7727 18.8296 15.3703 19.1858 15.3703 20.1453V21.7482C15.3703 22.7076 14.7612 23.0639 13.9799 23.0639C13.0664 23.0639 12.67 22.4951 12.67 22.0125C12.67 21.777 12.7849 21.7022 13.0204 21.7022C13.2273 21.7022 13.4111 21.7597 13.4111 21.9838C13.4111 22.2539 13.6812 22.4089 14.0028 22.4089C14.3878 22.4089 14.6234 22.2021 14.6234 21.7482V21.122C14.4338 21.3461 14.158 21.415 13.8592 21.415C13.21 21.4149 12.67 21.1334 12.67 20.2257ZM14.6234 20.0993C14.6234 19.6454 14.3935 19.4386 14.0143 19.4386C13.6409 19.4386 13.4168 19.6454 13.4168 20.0993V20.174C13.4168 20.6508 13.6409 20.8289 14.0201 20.8289C14.3878 20.8289 14.6234 20.6623 14.6234 20.2256V20.0993Z" fill="#1D2123"/>
<path d="M20.5507 6.03101C18.4002 3.88052 15.5411 2.6958 12.5002 2.6958C9.45893 2.6958 6.59976 3.88052 4.44922 6.03101C2.29873 8.18101 1.1145 11.0402 1.1145 14.0815C1.1145 16.9223 2.14766 19.604 4.03643 21.6978C6.26299 23.7484 9.23496 24.9999 12.5002 24.9999C15.764 24.9999 18.735 23.7494 20.9609 21.7004C22.8518 19.606 23.8859 16.9233 23.8859 14.0815C23.8859 11.0402 22.7013 8.18101 20.5507 6.03101ZM20.0293 21.6111C18.0181 23.6224 15.3441 24.7295 12.5002 24.7295C9.65586 24.7295 6.98188 23.6224 4.97065 21.6111C2.95942 19.5999 1.85176 16.9259 1.85176 14.0815C1.85176 11.2376 2.95942 8.56367 4.97065 6.55244C6.98188 4.54121 9.65586 3.43359 12.5002 3.43359C15.3441 3.43359 18.0181 4.54126 20.0293 6.55249C22.0406 8.56372 23.1482 11.2377 23.1482 14.0816C23.1482 16.9259 22.0405 19.5999 20.0293 21.6111Z" fill="#1D2123"/>
</g>
<defs>
<clipPath id="clip0">
<rect width="25" height="25" fill="white"/>
</clipPath>
</defs>
</svg>
