<svg width="25" height="25" viewBox="0 0 25 25" fill="none" xmlns="http://www.w3.org/2000/svg">
<g clip-path="url(#clip0)">
<path d="M25 12.5C25 18.3286 21.0107 23.2255 15.6138 24.6092C14.9995 24.7663 14.3673 24.8786 13.7204 24.9413C13.3189 24.9801 12.9117 25 12.5 25C12.0883 25 11.6806 24.9801 11.2791 24.9413C10.6322 24.8786 10 24.7663 9.38623 24.6092C3.98931 23.2255 0 18.3286 0 12.5C0 5.59644 5.59644 0 12.5 0C19.4036 0 25 5.59644 25 12.5Z" fill="#EBEBED"/>
<path d="M22.7714 9.33623C22.7714 15.475 19.9877 20.9633 15.6137 24.6092C14.9994 24.7663 14.3673 24.8786 13.7204 24.9413C13.3188 24.9801 12.9117 25 12.5 25C12.0882 25 11.6806 24.9801 11.2791 24.9413C10.6321 24.8786 9.99995 24.7663 9.38618 24.6092C5.01221 20.9633 2.22852 15.475 2.22852 9.33623C2.22852 7.89644 2.38159 6.49287 2.67188 5.14082C6.25557 4.42192 9.67852 2.70815 12.5 0C15.3209 2.70815 18.7443 4.42192 22.3275 5.14082C22.6183 6.49287 22.7714 7.89644 22.7714 9.33623Z" fill="#1D2123"/>
<path d="M5.07876 7.62329C5.05962 7.66206 4.99336 7.66846 4.93057 7.63755C4.86777 7.60664 4.83188 7.5502 4.85107 7.51187C4.86973 7.4731 4.93599 7.46724 4.99883 7.49815C5.06162 7.52856 5.09746 7.58506 5.07876 7.62329ZM5.05869 8.61865C5.05869 8.46357 5.40225 8.5043 5.40225 8.5043L5.45132 8.29966L5.6314 8.47974C5.6314 8.47974 5.87681 8.33247 6.05688 8.33247C6.23652 8.33247 6.44116 8.24268 6.29395 8.09541C6.14668 7.94814 5.57393 8.09541 5.57393 8.09541V8.28335L5.43506 8.07085C5.43506 8.07085 5.05864 8.08701 5.05864 7.76807C5.05864 7.76807 5.21025 7.80098 5.21025 7.61689L5.42666 7.75972L5.70493 7.67822C5.70493 7.67822 6.32236 7.85396 6.46567 7.99727V8.23433C6.46567 8.23433 6.58003 8.14453 6.58003 7.92368C6.58003 7.92368 5.89287 7.4 5.38589 7.35923C5.38589 7.35923 5.72109 6.84385 5.79473 6.68833C5.86836 6.53276 6.28159 6.32417 6.57998 6.6231C6.6585 6.70161 6.70908 6.78945 6.74146 6.87637C6.51812 6.87637 6.38364 6.6231 6.25308 6.56572C6.12549 6.50977 5.95176 6.72519 5.94243 6.73701C6.15396 6.52646 6.36548 6.80522 6.37529 6.81895C6.36401 6.81353 6.20156 6.73403 6.13823 6.86855C6.073 7.00742 5.9748 7.03198 5.9748 7.03198C5.9748 7.03198 6.02388 7.03198 6.28545 7.03198C6.45278 7.03198 6.55884 7.01187 6.62607 6.98633C6.63735 6.98188 6.64722 6.97749 6.65649 6.97305C6.66533 6.96816 6.67368 6.96372 6.68105 6.95933C6.68838 6.95444 6.69478 6.95 6.7002 6.94507C6.7395 6.91265 6.74141 6.88228 6.74141 6.87729C6.83223 7.12173 6.77627 7.35928 6.77627 7.35928C6.77627 7.35928 6.58833 7.13843 6.5063 7.35928C6.4248 7.58013 6.81748 7.9728 6.81748 7.9728C6.81748 7.9728 6.79292 8.46362 6.49844 8.46362C6.20396 8.46362 6.06455 8.47149 5.77842 8.54512C5.49258 8.61865 5.05869 8.77422 5.05869 8.61865ZM7.23247 8.0812C7.098 8.65742 6.66216 8.72515 6.66216 8.72515C6.99492 8.54009 7.01797 7.89082 7.01797 7.89082L6.84619 7.61499L6.94043 7.52271C7.12837 6.35313 6.0894 6.25493 6.0894 6.25493C7.071 6.25493 7.29185 7.29346 7.29185 7.29346C7.25107 6.56558 6.7603 6.31187 6.7603 6.31187L6.82554 6.09937C6.73574 5.78032 6.82554 5.5104 7.03018 5.5104C7.22842 5.5104 7.31089 5.77886 7.31582 5.79556C7.26621 5.67334 7.05469 5.60854 7.05469 5.60854C7.05469 5.60854 7.11211 5.80488 7.11211 5.97666C7.11211 6.14844 6.94819 6.23823 6.94819 6.23823C6.98057 6.37954 7.18965 6.23335 7.27754 6.16411C7.2417 6.20483 7.20098 6.28979 7.25938 6.44287C7.34917 6.67993 8.82993 6.61465 9.23047 6.46743C9.63145 6.32017 10.2695 6.47578 10.2695 6.47578C9.99561 6.74966 9.61524 6.54941 9.61524 6.54941C9.52495 6.63921 9.6231 6.83555 9.6231 6.83555C9.38604 6.94204 9.20591 6.77813 9.20591 6.77813C9.10776 6.9499 9.30405 7.1708 9.30405 7.1708C8.96885 7.23657 8.879 7.04023 8.879 7.04023C8.7686 7.15063 8.91577 7.47754 8.91577 7.47754C8.73174 7.47754 8.64976 7.21201 8.64976 7.21201C8.55161 7.4898 8.79702 7.90947 8.79702 7.90947C8.60659 7.90947 8.46572 7.68223 8.46572 7.68223C8.46572 7.9458 8.77837 8.33843 8.77837 8.33843C8.52119 8.33843 8.39849 8.09302 8.39849 8.09302C8.34302 8.35703 8.5148 8.81748 8.5148 8.81748C8.14028 8.76841 7.92583 8.33843 7.92583 8.33843C7.82769 8.6084 8.02397 8.82334 8.02397 8.82334C7.79087 8.74971 7.61314 8.40615 7.61314 8.40615C7.47769 8.68833 7.0605 8.71929 7.0605 8.71929C7.36934 8.47046 7.23247 8.0812 7.23247 8.0812ZM5.54165 5.71509C5.54165 5.71509 5.70508 6.04199 5.62314 6.23047C5.62314 6.23047 5.39004 6.32417 5.21431 6.50044C5.21426 6.50034 5.54165 5.98501 5.54165 5.71509ZM6.25327 6.56567C6.12568 6.50972 5.95195 6.72515 5.94263 6.73696C6.15415 6.52642 6.36567 6.80518 6.37549 6.8189C6.36421 6.81348 6.20176 6.73398 6.13843 6.86851C6.07319 7.00737 5.975 7.03193 5.975 7.03193C5.975 7.03193 6.02407 7.03193 6.28565 7.03193C6.45298 7.03193 6.55903 7.01182 6.62627 6.98628C6.63755 6.98184 6.64741 6.97744 6.65669 6.973C6.66553 6.96812 6.67388 6.96367 6.68125 6.95928C6.68858 6.95439 6.69497 6.94995 6.70039 6.94502C6.7397 6.9126 6.7416 6.88223 6.7416 6.87725C6.7416 6.87676 6.7416 6.87627 6.7416 6.87627C6.51831 6.87632 6.38384 6.62305 6.25327 6.56567ZM6.25327 6.56567C6.12568 6.50972 5.95195 6.72515 5.94263 6.73696C6.15415 6.52642 6.36567 6.80518 6.37549 6.8189C6.36421 6.81348 6.20176 6.73398 6.13843 6.86851C6.07319 7.00737 5.975 7.03193 5.975 7.03193C5.975 7.03193 6.02407 7.03193 6.28565 7.03193C6.45298 7.03193 6.55903 7.01182 6.62627 6.98628C6.63755 6.98184 6.64741 6.97744 6.65669 6.973C6.66553 6.96812 6.67388 6.96367 6.68125 6.95928C6.68858 6.95439 6.69497 6.94995 6.70039 6.94502C6.7397 6.9126 6.7416 6.88223 6.7416 6.87725C6.7416 6.87676 6.7416 6.87627 6.7416 6.87627C6.51831 6.87632 6.38384 6.62305 6.25327 6.56567ZM21.5749 5.88228C18.2049 5.10576 15.0927 3.50015 12.4999 1.20166C10.4534 3.01494 8.08457 4.39707 5.52075 5.28125C5.52075 5.28125 5.52075 5.28125 5.52026 5.28174C4.83506 5.51797 4.13555 5.71846 3.42485 5.88223C3.2167 7.01592 3.11157 8.1751 3.11157 9.33633C3.11157 10.7313 3.26411 12.1144 3.56309 13.4613C4.00493 15.4526 4.76563 17.3654 5.82378 19.1215C7.21357 21.4282 9.07837 23.4124 11.2789 24.9414C11.6805 24.9802 12.0881 25.0001 12.4999 25.0001C12.9116 25.0001 13.3188 24.9802 13.7203 24.9415C15.9213 23.4124 17.7851 21.4282 19.1753 19.1216C20.2335 17.3655 20.9942 15.4527 21.436 13.4614C21.735 12.1145 21.8876 10.7313 21.8876 9.33638C21.8876 8.17515 21.7825 7.01597 21.5749 5.88228Z" fill="#B50035"/>
<path d="M21.8878 9.33618C21.8878 10.731 21.7352 12.1146 21.4363 13.4613H3.56333C3.26445 12.1146 3.11182 10.731 3.11182 9.33618C3.11182 8.17495 3.21685 7.01616 3.42495 5.88242C6.79478 5.10547 9.90693 3.5001 12.4999 1.20166C15.0928 3.5001 18.2049 5.10601 21.5748 5.88242C21.7828 7.01611 21.8878 8.17495 21.8878 9.33618Z" fill="#FA9806"/>
<path d="M10.3557 10.7202C10.3444 10.7394 10.3326 10.759 10.3203 10.7781C10.3282 10.7649 10.3404 10.7447 10.3557 10.7202Z" fill="#152430"/>
<path d="M6.50879 15.3815C6.50879 15.2743 6.59556 15.1772 6.72324 15.1772H7.73408C8.40293 15.1772 8.94404 15.4325 8.94404 16.2442C8.94404 16.8313 8.65815 17.1479 8.27524 17.2653L8.94404 18.5059C8.96445 18.5314 8.96958 18.5672 8.96958 18.5876C8.96958 18.7561 8.75005 18.9347 8.55606 18.9347C8.46416 18.9347 8.37739 18.8786 8.32632 18.7765L7.60137 17.3675H7.17256V18.7C7.17256 18.8378 7.00918 18.9093 6.84067 18.9093C6.67729 18.9093 6.50879 18.8378 6.50879 18.7V15.3815V15.3815ZM7.17251 15.7593V16.8467H7.73403C8.06592 16.8467 8.28037 16.7089 8.28037 16.3056C8.28037 15.9022 8.06592 15.7593 7.73403 15.7593H7.17251Z" fill="#FA9806"/>
<path d="M9.37793 17.7708V16.3464C9.37793 15.4938 9.89863 15.1772 10.5725 15.1772C11.2464 15.1772 11.7723 15.4938 11.7723 16.3464V17.7708C11.7723 18.6233 11.2464 18.9398 10.5725 18.9398C9.89858 18.9398 9.37793 18.6233 9.37793 17.7708ZM11.1085 16.3464C11.1085 15.9431 10.9043 15.7593 10.5725 15.7593C10.2355 15.7593 10.0415 15.9431 10.0415 16.3464V17.7708C10.0415 18.1741 10.2355 18.3579 10.5725 18.3579C10.9043 18.3579 11.1085 18.1741 11.1085 17.7708V16.3464Z" fill="#FA9806"/>
<path d="M14.0343 17.5665C13.9781 17.6686 13.8913 17.6992 13.8096 17.6992C13.7279 17.6992 13.6462 17.6686 13.5901 17.5665L13.003 16.4637V18.6999C13.003 18.8377 12.8345 18.9092 12.6711 18.9092C12.5026 18.9092 12.3392 18.8377 12.3392 18.6999V15.5091C12.3392 15.264 12.5026 15.1772 12.6711 15.1772C12.9111 15.1772 13.0183 15.2283 13.1867 15.5295L13.8147 16.6731L14.4426 15.5295C14.6111 15.2283 14.7234 15.1772 14.9634 15.1772C15.1318 15.1772 15.2952 15.264 15.2952 15.5091V18.6999C15.2952 18.8377 15.1267 18.9092 14.9634 18.9092C14.7949 18.9092 14.6315 18.8377 14.6315 18.6999V16.5046L14.0343 17.5665Z" fill="#FA9806"/>
<path d="M15.6473 18.6334C15.6473 18.6232 15.6524 18.6028 15.6575 18.5824L16.6428 15.3711C16.6887 15.218 16.8776 15.1465 17.0665 15.1465C17.2606 15.1465 17.4494 15.218 17.4953 15.3711L18.4807 18.5824C18.4858 18.6028 18.4909 18.6181 18.4909 18.6334C18.4909 18.7917 18.2509 18.9091 18.0723 18.9091C17.9599 18.9091 17.8732 18.8734 17.8476 18.7764L17.6536 18.0974H16.4845L16.2905 18.7764C16.2649 18.8733 16.1781 18.9091 16.0658 18.9091C15.8872 18.9092 15.6473 18.7968 15.6473 18.6334ZM17.5107 17.5767L17.0665 16.0094L16.6223 17.5767H17.5107Z" fill="#FA9806"/>
<path d="M10.4178 21.0247L10.3361 21.1063C10.3157 21.1242 10.2928 21.1293 10.2749 21.1293C10.2111 21.1293 10.1677 21.063 10.1677 20.9966C10.1677 20.9507 10.1907 20.9022 10.2315 20.8767L10.5326 20.6471C10.5504 20.6318 10.5734 20.6216 10.6015 20.6216C10.6704 20.6216 10.7495 20.6624 10.7495 20.7287V22.3872C10.7495 22.4561 10.6652 22.4917 10.5836 22.4917C10.4994 22.4917 10.4178 22.4561 10.4178 22.3872V21.0247Z" fill="#EBEBED"/>
<path d="M10.9818 21.2469V21.2112C10.9818 20.7852 11.2446 20.627 11.5788 20.627C11.9156 20.627 12.181 20.7852 12.181 21.2112V21.9231C12.181 22.3492 11.9105 22.5074 11.5635 22.5074C11.1578 22.5074 10.9818 22.2548 10.9818 22.0404C10.9818 21.9358 11.0328 21.9026 11.1374 21.9026C11.2293 21.9026 11.3109 21.9281 11.3109 22.0277C11.3109 22.1476 11.4308 22.2165 11.5737 22.2165C11.7446 22.2165 11.8493 22.1247 11.8493 21.9231V21.645C11.7651 21.7445 11.6426 21.7751 11.5099 21.7751C11.2216 21.7751 10.9818 21.6501 10.9818 21.2469ZM11.8493 21.1908C11.8493 20.9893 11.7472 20.8974 11.5789 20.8974C11.413 20.8974 11.3134 20.9893 11.3134 21.1908V21.224C11.3134 21.4357 11.413 21.5148 11.5814 21.5148C11.7447 21.5148 11.8493 21.4409 11.8493 21.2469V21.1908H11.8493Z" fill="#EBEBED"/>
<path d="M12.9492 20.627C13.2451 20.627 13.5207 20.8209 13.5207 21.1449C13.5207 21.696 12.7119 21.8747 12.7119 22.14V22.2013H13.4212C13.4773 22.2013 13.5258 22.2676 13.5258 22.3442C13.5258 22.4207 13.4773 22.4921 13.4212 22.4921H12.5129C12.4542 22.4921 12.3674 22.4513 12.3674 22.3875V22.14C12.3674 21.7318 13.1891 21.5149 13.1891 21.1551C13.1891 21.0505 13.1201 20.928 12.9518 20.928C12.8268 20.928 12.7247 20.9943 12.7247 21.1526C12.7247 21.2138 12.6609 21.275 12.5511 21.275C12.4644 21.275 12.4006 21.2342 12.4006 21.0964C12.4005 20.8055 12.666 20.627 12.9492 20.627Z" fill="#EBEBED"/>
<path d="M14.8321 21.0224C14.8321 21.076 14.799 21.1551 14.7683 21.2164L14.1228 22.4564C14.105 22.4896 14.0718 22.5049 14.0284 22.5049C13.9238 22.5049 13.8192 22.4334 13.8192 22.339C13.8192 22.3186 13.8217 22.3007 13.8345 22.2803L14.5004 21.0862V20.9178H13.9671V21.1245C13.9671 21.1857 13.8855 21.2316 13.7988 21.2316C13.7095 21.2316 13.6354 21.1857 13.6354 21.1245V20.7315C13.6354 20.6805 13.7069 20.627 13.7808 20.627H14.6867C14.7504 20.627 14.8321 20.6805 14.8321 20.7315V21.0224H14.8321Z" fill="#EBEBED"/>
<path d="M15.4266 13.0012C15.3029 12.8476 15.2028 12.6061 15.1532 12.4746C15.2465 12.6999 15.4266 13.0012 15.4266 13.0012Z" fill="#152430"/>
<path d="M15.3542 13.0429C15.3503 13.0409 15.337 13.0326 15.3169 13.0193C15.2741 12.9599 15.2324 12.8893 15.1903 12.8058C15.1319 12.6899 15.0857 12.5755 15.0577 12.5C15.1514 12.7327 15.3405 13.0218 15.3542 13.0429Z" fill="#152430"/>
<path d="M12.5435 11.7456C12.5523 11.7466 12.5478 11.7471 12.5478 11.7471L12.5435 11.7456Z" fill="#152430"/>
<path d="M13.1796 11.3741C13.1766 11.3672 13.1742 11.3599 13.1723 11.3521C13.1747 11.3569 13.1762 11.3619 13.1777 11.3668C13.1782 11.3692 13.1792 11.3717 13.1796 11.3741Z" fill="#152430"/>
<path d="M19.0729 10.6077V10.6076C19.0729 10.6076 19.3409 7.47333 17.8361 6.80239C16.3308 6.13193 16.1016 6.16435 14.482 6.2954C12.8623 6.42641 11.2426 6.24633 9.59064 6.24633C7.93815 6.24633 7.82375 6.58989 7.59455 6.36069C7.39186 6.15849 7.63728 5.84096 7.2446 5.31772C7.15627 5.1999 6.97907 5.20043 6.88977 5.31723L6.65075 5.63085C6.60559 5.68925 6.58693 5.76435 6.59924 5.83696L6.64587 6.11523L5.77863 6.13193C5.77863 6.13193 5.74328 5.5037 5.52048 5.2809C5.52048 5.2809 5.52048 5.2809 5.51999 5.28139C5.50231 5.30444 4.88098 6.12114 5.00959 6.5246C5.00959 6.5246 4.68269 6.68803 4.84616 7.21176C4.84616 7.21176 4.42067 7.42426 4.63366 7.89892C4.84616 8.37304 4.89523 8.37304 4.8133 8.79858C4.8133 8.79858 5.25505 8.97866 5.74582 8.86381C5.74582 8.86381 6.58015 8.89672 7.20202 9.06015C7.82385 9.22407 9.21433 9.81308 9.41066 10.2219C9.607 10.6307 9.52502 13.5264 8.83791 13.7557C8.49436 13.8867 8.31472 14.4919 8.31472 14.4919C8.31472 14.4919 9.05095 14.5248 9.50886 14.3285L9.59079 14.6062C9.59079 14.6062 10.1307 14.0339 10.0325 13.4612L10.3761 13.363C10.3761 13.363 10.2613 12.2013 10.6377 11.3998C11.0141 10.5983 10.8011 10.3853 10.8011 10.3853C10.8011 10.3853 10.9812 10.3529 11.1284 10.5001C11.2757 10.6474 11.1775 10.8353 11.4636 10.8353C11.7503 10.8353 11.873 10.2057 12.1262 10.2057C12.38 10.2057 12.4698 10.7456 12.781 10.7456C13.0916 10.7456 13.1737 10.0093 13.337 10.0093C13.5004 10.0093 13.9098 10.6636 14.1552 10.6636C14.4006 10.6636 14.4006 9.92734 14.6293 9.92734C14.8585 9.92734 15.1201 10.4672 15.3984 10.4672C15.6767 10.4672 15.6674 9.76245 15.9054 10.238C16.2818 10.991 17.9015 11.7595 17.4436 13.4611L17.0181 13.5592L16.7398 14.05C16.7398 14.05 17.8196 14.3607 18.0817 13.7885C18.276 13.3624 18.5342 12.5649 18.654 12.1846C18.6937 12.0575 18.6584 11.919 18.5632 11.8253C18.3586 11.6241 18.0136 11.2527 17.9134 10.947C18.3309 11.3301 18.7693 11.6859 19.1938 11.9725L19.1614 13.6412H18.808C18.6657 13.6412 18.5376 13.7276 18.4846 13.8601L18.3104 14.2955C18.3104 14.2955 19.2595 14.6719 19.6522 14.0663L20.2083 12.103L19.0729 10.6077ZM16.5011 9.44726C16.5008 9.44677 16.5004 9.44623 16.5 9.44575C16.5005 9.44643 16.501 9.44702 16.5015 9.4477L16.5011 9.44726Z" fill="#C9CACC"/>
<path d="M19.0729 10.6077V10.6076C19.0729 10.6076 19.3409 7.47333 17.8361 6.80239C16.3308 6.13193 16.1016 6.16435 14.482 6.2954C12.8623 6.42641 11.2426 6.24633 9.59064 6.24633C7.93815 6.24633 7.82375 6.58989 7.59455 6.36069C7.39186 6.15849 7.63728 5.84096 7.2446 5.31772C7.15627 5.1999 6.97907 5.20043 6.88977 5.31723L6.65075 5.63085C6.60559 5.68925 6.58693 5.76435 6.59924 5.83696L6.64587 6.11523L5.77863 6.13193C5.77863 6.13193 5.74328 5.5037 5.52048 5.2809C5.52048 5.2809 5.52048 5.2809 5.51999 5.28139C5.50231 5.30444 4.88098 6.12114 5.00959 6.5246C5.00959 6.5246 4.68269 6.68803 4.84616 7.21176C4.84616 7.21176 4.42067 7.42426 4.63366 7.89892C4.84616 8.37304 4.89523 8.37304 4.8133 8.79858C4.8133 8.79858 5.25505 8.97866 5.74582 8.86381C5.74582 8.86381 6.58015 8.89672 7.20202 9.06015C7.82385 9.22407 9.21433 9.81308 9.41066 10.2219C9.607 10.6307 9.52502 13.5264 8.83791 13.7557C8.49436 13.8867 8.31472 14.4919 8.31472 14.4919C8.31472 14.4919 9.05095 14.5248 9.50886 14.3285L9.59079 14.6062C9.59079 14.6062 10.1307 14.0339 10.0325 13.4612L10.3761 13.363C10.3761 13.363 10.2613 12.2013 10.6377 11.3998C11.0141 10.5983 10.8011 10.3853 10.8011 10.3853C10.8011 10.3853 10.9812 10.3529 11.1284 10.5001C11.2757 10.6474 11.1775 10.8353 11.4636 10.8353C11.7503 10.8353 11.873 10.2057 12.1262 10.2057C12.38 10.2057 12.4698 10.7456 12.781 10.7456C13.0916 10.7456 13.1737 10.0093 13.337 10.0093C13.5004 10.0093 13.9098 10.6636 14.1552 10.6636C14.4006 10.6636 14.4006 9.92734 14.6293 9.92734C14.8585 9.92734 15.1201 10.4672 15.3984 10.4672C15.6767 10.4672 15.6674 9.76245 15.9054 10.238C16.2818 10.991 17.9015 11.7595 17.4436 13.4611L17.0181 13.5592L16.7398 14.05C16.7398 14.05 17.8196 14.3607 18.0817 13.7885C18.276 13.3624 18.5342 12.5649 18.654 12.1846C18.6937 12.0575 18.6584 11.919 18.5632 11.8253C18.3586 11.6241 18.0136 11.2527 17.9134 10.947C18.3309 11.3301 18.7693 11.6859 19.1938 11.9725L19.1614 13.6412H18.808C18.6657 13.6412 18.5376 13.7276 18.4846 13.8601L18.3104 14.2955C18.3104 14.2955 19.2595 14.6719 19.6522 14.0663L20.2083 12.103L19.0729 10.6077ZM5.54162 5.71474C5.54162 5.71474 5.70505 6.04164 5.62312 6.23012C5.62312 6.23012 5.39001 6.32382 5.21428 6.50009C5.21423 6.49999 5.54162 5.98466 5.54162 5.71474ZM4.93054 7.6372C4.86774 7.60629 4.83186 7.54985 4.85104 7.51152C4.8697 7.47275 4.93596 7.46689 4.9988 7.4978C5.06159 7.52822 5.09748 7.58466 5.07878 7.62294C5.05964 7.66171 4.99338 7.66811 4.93054 7.6372ZM5.77863 8.54467C5.4925 8.6183 5.05861 8.77387 5.05861 8.6183C5.05861 8.46323 5.40217 8.50395 5.40217 8.50395L5.45124 8.29931L5.63132 8.47939C5.63132 8.47939 5.87673 8.33212 6.05681 8.33212C6.23645 8.33212 6.44108 8.24233 6.29387 8.09506C6.14665 7.9478 5.57385 8.09506 5.57385 8.09506V8.283L5.43498 8.0705C5.43498 8.0705 5.05856 8.08666 5.05856 7.76772C5.05856 7.76772 5.21018 7.80063 5.21018 7.61655L5.42658 7.75937L5.70485 7.67787C5.70485 7.67787 6.32229 7.85361 6.4656 7.99692V8.23398C6.4656 8.23398 6.57995 8.14418 6.57995 7.92333C6.57995 7.92333 5.89279 7.39965 5.38581 7.35888C5.38581 7.35888 5.72102 6.8435 5.79465 6.68798C5.86828 6.53242 6.28151 6.32382 6.5799 6.62275C6.65842 6.70126 6.709 6.78911 6.74138 6.87602C6.51804 6.87602 6.38356 6.62275 6.253 6.56537C6.12541 6.50942 5.95168 6.72485 5.94235 6.73666C6.15388 6.52612 6.3654 6.80488 6.37521 6.8186C6.36394 6.81318 6.20148 6.73369 6.13815 6.86821C6.07292 7.00707 5.97473 7.03163 5.97473 7.03163C5.97473 7.03163 6.0238 7.03163 6.28537 7.03163C6.4527 7.03163 6.55876 7.01152 6.626 6.98598C6.63728 6.98154 6.64714 6.97714 6.65642 6.9727C6.66525 6.96782 6.6736 6.96337 6.68098 6.95898C6.6883 6.9541 6.6947 6.94965 6.70012 6.94472C6.73942 6.9123 6.74133 6.88193 6.74133 6.87695C6.83215 7.12138 6.77619 7.35893 6.77619 7.35893C6.77619 7.35893 6.58825 7.13808 6.50622 7.35893C6.42473 7.57978 6.8174 7.97246 6.8174 7.97246C6.8174 7.97246 6.79284 8.46328 6.49836 8.46328C6.20417 8.46323 6.06477 8.47109 5.77863 8.54467ZM8.87907 7.03989C8.76867 7.15029 8.91584 7.47719 8.91584 7.47719C8.73181 7.47719 8.64982 7.21166 8.64982 7.21166C8.55168 7.48945 8.79709 7.90913 8.79709 7.90913C8.60666 7.90913 8.46579 7.68188 8.46579 7.68188C8.46579 7.94545 8.77844 8.33808 8.77844 8.33808C8.52126 8.33808 8.39855 8.09267 8.39855 8.09267C8.34309 8.35668 8.51486 8.81713 8.51486 8.81713C8.14035 8.76806 7.9259 8.33808 7.9259 8.33808C7.82775 8.60805 8.02404 8.82299 8.02404 8.82299C7.79094 8.74936 7.6132 8.4058 7.6132 8.4058C7.47775 8.68798 7.06057 8.71894 7.06057 8.71894C7.36931 8.47011 7.23234 8.0809 7.23234 8.0809C7.09787 8.65712 6.66203 8.72485 6.66203 8.72485C6.9948 8.53979 7.01784 7.89052 7.01784 7.89052L6.84606 7.61469L6.9403 7.52241C7.12824 6.35283 6.08928 6.25463 6.08928 6.25463C7.07087 6.25463 7.29172 7.29316 7.29172 7.29316C7.25095 6.56528 6.76018 6.31157 6.76018 6.31157L6.82541 6.09907C6.73562 5.78002 6.82541 5.5101 7.03005 5.5101C7.22829 5.5101 7.31076 5.77856 7.31569 5.79526C7.26608 5.67304 7.05456 5.60825 7.05456 5.60825C7.05456 5.60825 7.11198 5.80458 7.11198 5.97636C7.11198 6.14814 6.94807 6.23793 6.94807 6.23793C6.98044 6.37924 7.18952 6.23305 7.27741 6.16381C7.24157 6.20453 7.20085 6.2895 7.25925 6.44257C7.34904 6.67963 8.8298 6.61435 9.23034 6.46713C9.63132 6.31987 10.2694 6.47548 10.2694 6.47548C9.99548 6.74936 9.61511 6.54912 9.61511 6.54912C9.52482 6.63891 9.62297 6.83525 9.62297 6.83525C9.38591 6.94174 9.20578 6.77783 9.20578 6.77783C9.10764 6.9496 9.30393 7.1705 9.30393 7.1705C8.96887 7.23622 8.87907 7.03989 8.87907 7.03989ZM16.5011 9.44726C16.5008 9.44677 16.5004 9.44623 16.5 9.44575C16.5005 9.44643 16.501 9.44702 16.5015 9.4477L16.5011 9.44726ZM18.8383 14.2017C18.8383 14.2017 18.6538 14.3862 18.6538 14.0991C18.6538 13.812 18.9601 13.7928 18.9601 13.7928C18.7589 13.945 18.8383 14.2017 18.8383 14.2017ZM19.0337 14.184C19.0337 13.9616 19.1971 14.0206 19.3149 13.9028C19.4327 13.785 19.3149 12.261 19.3149 12.261L19.6845 12.3975C19.6845 11.8905 17.6231 10.8598 16.2489 8.63496C15.6958 7.73925 15.8842 7.17729 15.8886 7.16308C15.8666 7.18076 15.3448 7.60825 15.8891 8.56918C16.0174 8.79555 16.193 9.0517 16.4029 9.32241C16.0498 8.89614 15.5103 8.49272 14.646 8.88036C14.3869 8.99638 14.1133 9.10488 13.8466 9.17905C13.426 9.02353 13.1257 8.70351 13.018 8.11127C13.018 8.11127 12.9812 8.8685 13.4201 9.26484C13.3621 9.27138 13.305 9.27519 13.2492 9.27612C13.0154 9.06298 12.5541 8.53271 12.4536 7.59589C12.4536 7.59589 12.39 8.50287 12.8397 9.2165C12.5751 9.12245 12.371 8.90986 12.2735 8.52006C11.9957 7.4079 11.2757 7.53847 11.2757 7.53847C11.2757 7.53847 11.3548 9.05356 10.3653 10.7046C10.4845 10.5171 10.7544 10.1452 10.7029 10.6963C10.6377 11.3996 10.1306 11.9724 10.2121 13.1994H10.0324L9.76247 14.2055L9.41057 14.2545L9.50036 13.9434L9.12834 14.3159L8.85446 14.3526L9.13752 13.8735C9.16105 13.8337 9.19475 13.8009 9.23523 13.7784L9.39436 13.69C9.39436 13.69 9.6967 10.9415 9.63977 10.2377L9.86848 10.7943C9.86848 10.7943 9.80324 10.115 9.56613 9.73071C9.32858 9.34643 9.27951 7.84951 9.81154 7.21928C10.3431 6.58959 11.0955 6.42617 11.1936 7.33412C11.1936 7.33412 11.3409 6.86787 11.0548 6.5812C11.0548 6.5812 12.2901 6.68769 13.5662 6.60576C14.8423 6.52426 16.3063 6.44233 16.9934 6.64697C17.6804 6.85112 18.7869 7.04936 18.7873 9.7142C18.6456 8.89164 18.2667 7.485 17.2963 6.96596C18.752 8.63466 18.5724 10.2705 18.5724 10.2705L20.0448 12.1026C20.0448 12.1026 19.7827 13.1824 19.6521 13.7875C19.5211 14.3936 19.0337 14.4068 19.0337 14.184Z" fill="#152430"/>
<path d="M16.4022 12.6397C16.2957 12.4301 16.2903 12.3241 16.2903 12.3241V12.2976L16.2869 12.2917C16.3085 12.2957 16.3173 12.2957 16.3218 12.2957C16.4077 12.2957 16.5795 12.1469 16.5795 11.9521C16.5795 11.8304 16.4921 11.2625 16.3792 11.1497C16.3532 11.1236 16.3223 11.1016 16.2919 11.0829C16.3443 11.0304 16.3964 10.9598 16.419 10.8729C16.443 10.7801 16.4288 10.6834 16.3782 10.5921C16.3649 10.4625 16.3164 10.331 16.2162 10.2912C16.1701 10.2132 16.0586 10.0649 15.88 10.0649C15.8049 10.0649 15.7294 10.0915 15.6547 10.1444C15.5266 10.165 15.3441 10.2392 15.3068 10.405C15.244 10.4438 15.1458 10.5213 15.135 10.6377C15.1267 10.7246 15.1674 10.807 15.2563 10.8831L15.2366 10.967C15.084 10.996 14.8813 11.0956 14.8273 11.3337L14.6227 11.1835C14.5962 11.1183 14.5348 11.0304 14.4244 10.9921C14.2968 10.9484 14.2291 10.9459 14.2168 10.9459H14.0676L14.1265 11.0829C14.1285 11.0874 14.1368 11.1055 14.1516 11.1291C14.1511 11.1286 14.1182 11.1124 14.1182 11.1124C14.0461 11.077 13.9833 11.0461 13.9234 11.0461C13.8518 11.0461 13.7791 11.0947 13.7791 11.2037C13.7791 11.372 13.9837 11.4624 14.025 11.479L14.0426 11.4859H14.3386C14.3945 11.639 14.5418 11.984 14.7661 12.0827C14.8073 12.1009 14.847 12.1102 14.8849 12.1102C14.9124 12.1102 14.9609 12.1043 15.0086 12.0709C15.0125 12.1514 15.0154 12.226 15.0179 12.2819L15.0017 12.2849C14.4309 12.3831 14.3867 12.6044 14.3867 12.6702C14.3867 12.8454 14.5845 13.238 14.6841 13.4245L14.6215 13.4611C14.585 13.4323 14.5406 13.415 14.4947 13.4098C14.4554 13.3902 14.4176 13.3804 14.3818 13.3804C14.3592 13.3804 14.3391 13.3843 14.3209 13.3907C14.3082 13.3868 14.2949 13.3848 14.2816 13.3848C14.2261 13.3848 14.1805 13.4191 14.1579 13.4751L13.9027 13.3053C13.8242 13.134 13.5679 13.0648 13.4251 13.0389C13.41 12.8676 13.3521 12.7213 13.3265 12.6639L13.3559 12.2306C13.4124 12.2463 13.562 12.2831 13.7014 12.2831C13.9684 12.2831 14.0259 12.1452 14.0356 12.0627C14.0671 11.8148 13.746 11.4934 13.6077 11.3672L13.6617 11.1685L13.6214 11.1282C13.5149 11.0222 13.3672 10.8951 13.2671 10.8951C13.2317 10.8951 13.1993 10.9084 13.1758 10.9319C13.1351 10.9726 13.1297 11.0128 13.1327 11.0398C13.1346 11.0619 13.1425 11.0801 13.1528 11.0953L13.141 11.0875L13.115 11.1508C12.9908 11.0644 12.8141 11.0035 12.6541 11.0035C12.6045 11.0035 12.3493 11.029 12.1883 11.5341L12.1756 11.5748L12.2188 11.6509C12.0141 11.6857 11.9218 11.8757 11.8904 12.0293C11.8595 12.0273 11.8241 12.0259 11.7873 12.0259C11.6715 12.0259 11.5891 12.0646 11.561 12.1329C11.5404 12.1825 11.5532 12.2374 11.5949 12.2792C11.6072 12.2914 11.6204 12.3007 11.6361 12.3086C11.5704 12.397 11.6189 12.4627 11.644 12.4877C11.6565 12.5002 11.6708 12.5098 11.686 12.5168C11.6391 12.5966 11.8321 12.8357 11.8321 12.8357L11.8604 12.864C11.8145 12.8796 11.766 12.8987 11.7157 12.9231C11.5959 12.9815 11.5272 13.0591 11.5115 13.1533C11.4953 13.251 11.5439 13.3408 11.5949 13.3918L11.9812 13.7781C11.9267 13.8071 11.8899 13.8679 11.8849 13.947C11.8761 14.0766 11.9531 14.2223 12.097 14.2419C12.1112 14.2439 12.1259 14.2449 12.1406 14.2449C12.2766 14.2449 12.4189 14.1644 12.4837 14.1222C12.497 14.1237 12.5097 14.1242 12.5225 14.1242C12.574 14.1242 12.6137 14.1129 12.6442 14.0967C12.6741 14.0805 12.6952 14.0594 12.7094 14.0407C12.7781 13.9489 12.7458 13.8252 12.7403 13.8071L12.7531 13.8105C12.7761 13.8159 12.8002 13.8188 12.8257 13.8188C12.9091 13.8188 12.9789 13.787 12.9867 13.7835L12.9912 13.7811C13.0525 13.8232 13.1438 13.8434 13.2744 13.8434C13.3759 13.8434 13.4825 13.8307 13.5561 13.8194C13.6616 14.079 14.1073 14.2327 14.233 14.2714C14.2776 14.2984 14.4023 14.3687 14.4985 14.3687C14.5569 14.3687 14.5932 14.3446 14.6133 14.3245C14.6933 14.2445 14.6752 14.1326 14.6609 14.0796C14.6675 14.0363 14.6816 13.9401 14.6922 13.842H15.1473C15.2077 13.842 15.2936 13.8342 15.3437 13.7665C15.3991 13.6914 15.3711 13.6011 15.3437 13.5138C15.3265 13.4573 15.3064 13.3935 15.3064 13.3332V13.1246L15.3574 13.0721C15.4433 13.1761 15.5301 13.2315 15.6204 13.2399L15.6238 13.2414H15.6469C15.6562 13.2414 15.665 13.2404 15.6739 13.2384C15.6694 13.3965 15.6935 13.581 15.7754 13.7808C15.7814 13.7935 15.8388 13.9064 16.0287 13.9064C16.1161 13.9064 16.2206 13.8824 16.3389 13.8353L16.3865 13.8161L16.3978 13.7665C16.41 13.715 16.5087 13.2796 16.4596 13.0426C16.4846 12.9754 16.5053 12.8419 16.4022 12.6397Z" fill="#C9CACC"/>
<path d="M12.5478 11.7476C12.5478 11.7476 12.5523 11.7471 12.5435 11.7461L12.5478 11.7476Z" fill="#152430"/>
<path d="M13.1775 11.3668C13.1761 11.3619 13.1746 11.357 13.1721 11.3521C13.1741 11.3599 13.1766 11.3672 13.1794 11.3741C13.1791 11.3717 13.178 11.3692 13.1775 11.3668Z" fill="#152430"/>
<path d="M16.4022 12.6397C16.2957 12.4301 16.2903 12.3241 16.2903 12.3241V12.2976L16.2869 12.2917C16.3085 12.2957 16.3173 12.2957 16.3218 12.2957C16.4077 12.2957 16.5795 12.1469 16.5795 11.9521C16.5795 11.8304 16.4921 11.2625 16.3792 11.1497C16.3532 11.1236 16.3223 11.1016 16.2919 11.0829C16.3443 11.0304 16.3964 10.9598 16.419 10.8729C16.443 10.7801 16.4288 10.6834 16.3782 10.5921C16.3649 10.4625 16.3164 10.331 16.2162 10.2912C16.1701 10.2132 16.0586 10.0649 15.88 10.0649C15.8049 10.0649 15.7294 10.0915 15.6547 10.1444C15.5266 10.165 15.3441 10.2392 15.3068 10.405C15.244 10.4438 15.1458 10.5213 15.135 10.6377C15.1267 10.7246 15.1674 10.807 15.2563 10.8831L15.2366 10.967C15.084 10.996 14.8813 11.0956 14.8273 11.3337L14.6227 11.1835C14.5962 11.1183 14.5348 11.0304 14.4244 10.9921C14.2968 10.9484 14.2291 10.9459 14.2168 10.9459H14.0676L14.1265 11.0829C14.1285 11.0874 14.1368 11.1055 14.1516 11.1291C14.1511 11.1286 14.1182 11.1124 14.1182 11.1124C14.0461 11.077 13.9833 11.0461 13.9234 11.0461C13.8518 11.0461 13.7791 11.0947 13.7791 11.2037C13.7791 11.372 13.9837 11.4624 14.025 11.479L14.0426 11.4859H14.3386C14.3945 11.639 14.5418 11.984 14.7661 12.0827C14.8073 12.1009 14.847 12.1102 14.8849 12.1102C14.9124 12.1102 14.9609 12.1043 15.0086 12.0709C15.0125 12.1514 15.0154 12.226 15.0179 12.2819L15.0017 12.2849C14.4309 12.3831 14.3867 12.6044 14.3867 12.6702C14.3867 12.8454 14.5845 13.238 14.6841 13.4245L14.6215 13.4611C14.585 13.4323 14.5406 13.415 14.4947 13.4098C14.4554 13.3902 14.4176 13.3804 14.3818 13.3804C14.3592 13.3804 14.3391 13.3843 14.3209 13.3907C14.3082 13.3868 14.2949 13.3848 14.2816 13.3848C14.2261 13.3848 14.1805 13.4191 14.1579 13.4751L13.9027 13.3053C13.8242 13.134 13.5679 13.0648 13.4251 13.0389C13.41 12.8676 13.3521 12.7213 13.3265 12.6639L13.3559 12.2306C13.4124 12.2463 13.562 12.2831 13.7014 12.2831C13.9684 12.2831 14.0259 12.1452 14.0356 12.0627C14.0671 11.8148 13.746 11.4934 13.6077 11.3672L13.6617 11.1685L13.6214 11.1282C13.5149 11.0222 13.3672 10.8951 13.2671 10.8951C13.2317 10.8951 13.1993 10.9084 13.1758 10.9319C13.1351 10.9726 13.1297 11.0128 13.1327 11.0398C13.1346 11.0619 13.1425 11.0801 13.1528 11.0953L13.141 11.0875L13.115 11.1508C12.9908 11.0644 12.8141 11.0035 12.6541 11.0035C12.6045 11.0035 12.3493 11.029 12.1883 11.5341L12.1756 11.5748L12.2188 11.6509C12.0141 11.6857 11.9218 11.8757 11.8904 12.0293C11.8595 12.0273 11.8241 12.0259 11.7873 12.0259C11.6715 12.0259 11.5891 12.0646 11.561 12.1329C11.5404 12.1825 11.5532 12.2374 11.5949 12.2792C11.6072 12.2914 11.6204 12.3007 11.6361 12.3086C11.5704 12.397 11.6189 12.4627 11.644 12.4877C11.6565 12.5002 11.6708 12.5098 11.686 12.5168C11.6391 12.5966 11.8321 12.8357 11.8321 12.8357L11.8604 12.864C11.8145 12.8796 11.766 12.8987 11.7157 12.9231C11.5959 12.9815 11.5272 13.0591 11.5115 13.1533C11.4953 13.251 11.5439 13.3408 11.5949 13.3918L11.9812 13.7781C11.9267 13.8071 11.8899 13.8679 11.8849 13.947C11.8761 14.0766 11.9531 14.2223 12.097 14.2419C12.1112 14.2439 12.1259 14.2449 12.1406 14.2449C12.2766 14.2449 12.4189 14.1644 12.4837 14.1222C12.497 14.1237 12.5097 14.1242 12.5225 14.1242C12.574 14.1242 12.6137 14.1129 12.6442 14.0967C12.6741 14.0805 12.6952 14.0594 12.7094 14.0407C12.7781 13.9489 12.7458 13.8252 12.7403 13.8071L12.7531 13.8105C12.7761 13.8159 12.8002 13.8188 12.8257 13.8188C12.9091 13.8188 12.9789 13.787 12.9867 13.7835L12.9912 13.7811C13.0525 13.8232 13.1438 13.8434 13.2744 13.8434C13.3759 13.8434 13.4825 13.8307 13.5561 13.8194C13.6616 14.079 14.1073 14.2327 14.233 14.2714C14.2776 14.2984 14.4023 14.3687 14.4985 14.3687C14.5569 14.3687 14.5932 14.3446 14.6133 14.3245C14.6933 14.2445 14.6752 14.1326 14.6609 14.0796C14.6675 14.0363 14.6816 13.9401 14.6922 13.842H15.1473C15.2077 13.842 15.2936 13.8342 15.3437 13.7665C15.3991 13.6914 15.3711 13.6011 15.3437 13.5138C15.3265 13.4573 15.3064 13.3935 15.3064 13.3332V13.1246L15.3574 13.0721C15.4433 13.1761 15.5301 13.2315 15.6204 13.2399L15.6238 13.2414H15.6469C15.6562 13.2414 15.665 13.2404 15.6739 13.2384C15.6694 13.3965 15.6935 13.581 15.7754 13.7808C15.7814 13.7935 15.8388 13.9064 16.0287 13.9064C16.1161 13.9064 16.2206 13.8824 16.3389 13.8353L16.3865 13.8161L16.3978 13.7665C16.41 13.715 16.5087 13.2796 16.4596 13.0426C16.4846 12.9754 16.5053 12.8419 16.4022 12.6397ZM11.742 12.5292C11.7465 12.5292 11.7503 12.5288 11.7543 12.5288C11.7906 12.5808 11.8524 12.6117 11.9251 12.6117C11.9864 12.6117 12.0454 12.5906 12.0924 12.5548C12.0929 12.5612 12.0934 12.5681 12.0939 12.5744L12.1861 12.5829C12.2068 12.631 12.2049 12.6957 12.0733 12.7292C11.8486 12.7863 11.742 12.5292 11.742 12.5292ZM12.6461 13.8333C12.6461 13.8333 12.7154 14.0664 12.4597 14.0193C12.4597 14.0193 12.2614 14.1646 12.1102 14.1445C11.959 14.1239 11.9423 13.8579 12.0572 13.8579C12.1715 13.8579 12.1715 13.8377 12.1715 13.8377C12.1715 13.8377 12.2574 13.6699 12.413 13.6699C12.413 13.6699 12.2702 13.609 12.1264 13.7842C12.1264 13.7842 11.7092 13.367 11.6646 13.3224C11.6155 13.2733 11.5271 13.1236 11.7584 13.0112C11.9895 12.8988 12.1838 12.8988 12.1838 12.8988C12.1838 12.8988 12.548 13.212 12.6584 13.6861H12.6133C12.6133 13.6861 12.2967 13.1344 11.9546 13.0176C11.9914 13.0407 12.3005 13.2463 12.6461 13.8333ZM14.5435 14.2549C14.4841 14.3138 14.2735 14.1813 14.2735 14.1813C14.2735 14.1813 13.6315 13.9889 13.6315 13.7066C13.6315 13.7066 13.1491 13.8048 13.0303 13.686C13.0303 13.686 12.967 13.5049 13.1486 13.3145C13.1358 13.3199 12.9223 13.4166 12.9444 13.6944C12.9444 13.6944 12.8585 13.7351 12.7765 13.715C12.7765 13.715 12.5969 13.1138 12.1959 12.8601L12.298 12.6721L12.2734 12.1813C12.2734 12.1813 12.4271 12.1749 12.511 12.091C12.511 12.091 12.2734 12.1033 12.2734 12.0218C12.2734 11.9399 12.2165 11.8132 12.2165 11.8132V12.4635L12.1919 12.5695C12.1919 12.5695 12.1752 12.226 12.0447 12.1568C12.0447 12.1568 12.1345 12.2795 12.0894 12.4022C12.0447 12.5249 11.8606 12.5534 11.8238 12.4513V12.3732C11.8238 12.3732 11.7581 12.4635 11.7134 12.4184C11.6683 12.3732 11.7605 12.3532 11.7605 12.2814C11.7605 12.2098 11.9097 12.2549 11.9097 12.2549L11.973 12.1916L11.8563 12.2014C11.8563 12.2014 11.7115 12.2569 11.6644 12.2098C11.6173 12.1626 11.6889 12.1239 11.7871 12.1239C11.8852 12.1239 11.975 12.1361 11.975 12.1361C11.975 12.1361 11.9912 11.7435 12.2856 11.7435C12.4677 11.7435 12.5247 11.7449 12.5418 11.7459L12.3553 11.6944L12.2816 11.5634C12.2816 11.5634 12.4289 11.1016 12.6537 11.1016C12.8701 11.1016 13.1204 11.2297 13.1719 11.3524C13.1646 11.3209 13.1665 11.2827 13.1856 11.2366L13.3 11.3141C13.3 11.3141 13.3613 11.216 13.3309 11.1359C13.3 11.0564 13.1896 11.0564 13.245 11.001C13.3 10.946 13.5513 11.1978 13.5513 11.1978L13.4963 11.4C13.4963 11.4 13.969 11.8049 13.9381 12.0503C13.9072 12.2957 13.3614 12.1303 13.3614 12.1303L13.3064 11.8112L13.2265 12.0994L12.9747 12.0566C12.9747 12.0566 13.1464 12.1852 13.2574 12.2343L13.2265 12.6819C13.2265 12.6819 13.331 12.891 13.331 13.1236C13.331 13.1236 13.7664 13.1727 13.8218 13.369L14.1899 13.6145C14.1899 13.6145 14.2513 13.8358 14.159 13.9276C14.159 13.9276 14.2979 13.903 14.241 13.5433C14.241 13.5433 14.2532 13.4368 14.3225 13.5065C14.3225 13.5065 14.3598 13.4438 14.4658 13.5065C14.4658 13.5065 14.5202 13.5049 14.5613 13.5385L14.6063 13.6691C14.6023 13.82 14.56 14.0872 14.56 14.0872C14.56 14.0872 14.6029 14.1955 14.5435 14.2549ZM14.8606 12.6603C14.8788 12.7624 15.2081 13.0746 15.2081 13.0746C15.2081 13.0746 15.2081 13.1119 15.2081 13.3327C15.2081 13.5536 15.3985 13.7436 15.1472 13.7436C14.8954 13.7436 14.7359 13.7436 14.7359 13.7436L14.7054 13.655C14.7054 13.6525 14.7055 13.6498 14.7055 13.6474C14.7055 13.6051 14.6967 13.5694 14.6826 13.5388L14.8154 13.4613C14.8154 13.4613 14.4846 12.8665 14.4846 12.6702C14.4846 12.4738 15.0181 12.3816 15.0181 12.3816C15.0196 12.3875 15.0211 12.3934 15.023 12.3993C15.0254 12.4071 15.0279 12.4154 15.0309 12.4238C15.0343 12.4366 15.0392 12.4503 15.0446 12.4641C15.0461 12.4685 15.0476 12.4729 15.0495 12.4778C15.0519 12.4851 15.0549 12.4925 15.0578 12.5003C15.0858 12.5759 15.1319 12.6903 15.1903 12.8061C15.2325 12.8895 15.2743 12.9603 15.317 13.0196C15.2052 12.9474 14.8861 12.7358 14.8606 12.6603ZM16.3025 13.7435C15.9344 13.8907 15.8648 13.7396 15.8648 13.7396C15.689 13.3101 15.7995 12.9375 15.8893 12.7658C15.9791 12.594 16.1632 12.627 16.1632 12.627C15.8074 12.4836 15.8157 12.7374 15.7504 12.9499C15.6847 13.1629 15.644 13.1423 15.644 13.1423C15.5674 13.1423 15.4933 13.0849 15.4266 13.0014C15.4266 13.0014 15.2465 12.7 15.1532 12.4748C15.1517 12.4709 15.1502 12.4669 15.1487 12.463C15.1399 12.441 15.132 12.4194 15.1257 12.3992C15.1242 12.3948 15.1227 12.3909 15.1218 12.3865C15.1208 12.385 15.1203 12.3831 15.1203 12.3816C15.1203 12.3816 15.0919 11.6984 15.0756 11.5188C15.0589 11.3387 15.1287 11.163 15.1287 11.163C14.9407 11.269 15.0467 11.723 15.0467 11.723C15.0467 11.723 15.0467 12.0994 14.8058 11.993C14.5643 11.887 14.4087 11.3878 14.4087 11.3878H14.0612C14.0612 11.3878 13.8772 11.3142 13.8772 11.2038C13.8772 11.0934 13.9916 11.1605 14.1064 11.216C14.2208 11.2715 14.3332 11.1605 14.3332 11.1605C14.2536 11.1301 14.2169 11.0442 14.2169 11.0442C14.2169 11.0442 14.2738 11.0442 14.3926 11.085C14.5114 11.1262 14.5398 11.2444 14.5398 11.2444L14.7853 11.4245L14.9119 11.85V11.4613C14.9119 11.0726 15.3168 11.0564 15.3168 11.0564L15.3658 10.8439C15.0468 10.623 15.3987 10.4675 15.3987 10.4675C15.3987 10.2711 15.6932 10.2383 15.6932 10.2383C15.9877 10.0091 16.1511 10.3777 16.1511 10.3777C16.2659 10.3777 16.2821 10.6231 16.2821 10.6231C16.4622 10.9092 16.102 11.1056 16.102 11.1056C16.102 11.1056 16.236 11.1453 16.3096 11.2189C16.3833 11.2926 16.4814 11.802 16.4814 11.9522C16.4814 12.1024 16.3464 12.1976 16.3219 12.1976C16.2974 12.1976 16.1688 12.1637 16.1688 12.1637L15.8498 11.6057C16.08 11.6057 16.1241 11.5365 16.1241 11.5365L16.4142 11.8265L16.129 11.4368C16.0535 11.5119 15.7727 11.5904 15.7727 11.5904C15.6136 11.5625 15.46 11.4285 15.46 11.4285C15.4762 11.6493 15.832 11.7067 15.832 11.7067L16.1923 12.3242C16.1923 12.3242 16.1923 12.443 16.315 12.6844C16.4377 12.9254 16.3557 13.0319 16.3557 13.0319C16.4209 13.2365 16.3025 13.7435 16.3025 13.7435Z" fill="#152430"/>
<path d="M12.5478 11.7476C12.5478 11.7476 12.5523 11.7471 12.5435 11.7461L12.5478 11.7476Z" fill="#152430"/>
<path d="M13.1775 11.3668C13.1761 11.3619 13.1746 11.357 13.1721 11.3521C13.1741 11.3599 13.1766 11.3672 13.1794 11.3741C13.1791 11.3717 13.178 11.3692 13.1775 11.3668Z" fill="#152430"/>
<path d="M13.3617 11.7559C13.3617 11.7559 13.5703 12.0626 13.6866 12.0813C13.6866 12.0813 13.3209 11.6125 13.288 11.4776C13.288 11.4776 13.2095 11.4481 13.1801 11.3755C13.2154 11.4997 13.235 11.6209 13.235 11.6209L13.155 11.7004C13.155 11.7004 13.1123 11.67 13.0059 11.7004L13.2635 11.7559H13.3617Z" fill="#152430"/>
</g>
<defs>
<clipPath id="clip0">
<rect width="25" height="25" fill="white"/>
</clipPath>
</defs>
</svg>
